{"title":"Saw VII 2010 1080p Bluray x264 DTS-HDChina BOZX","uid":6067448,"size":9524513109,"categoryP":"video","categoryS":"hd___movies","magnet":"?xt=urn:btih:1cefcb93f7006b70484180bb05c2e1aa77cd0447&amp;dn=Saw+VII+2010+1080p+Bluray+x264+DTS-HDChina+BOZX&amp;tr=udp%3A%2F%2Ftracker.openbittorrent.com%3A80&amp;tr=udp%3A%2F%2Fopen.demonii.com%3A1337&amp;tr=udp%3A%2F%2Ftracker.coppersurfer.tk%3A6969&amp;tr=udp%3A%2F%2Fexodus.desync.com%3A6969","seeders":0,"leechers":4,"uploader":"BOZX","files":3,"time":1293409311,"description":"As a deadly battle rages over Jigsaw's brutal legacy, a group of Jigsaw survivors gathers to seek the support of self-help guru and fellow survivor Bobby Dagen, a man whose own dark secrets unleash a new wave of terror.  \n\nGeneral\nFormat                           : Matroska\nFile size                        : 8.74 GiB\nDuration                         : 1h 30mn\nOverall bit rate                 : 13.9 Mbps\nEncoded date                     : UTC 2010-12-27 02:03:00\nWriting application              : mkvmerge v3.3.0 ('Language') built on Mar 24 2010 14:59:24\nWriting library                  : libebml v0.8.0 + libmatroska v0.9.0\n\nVideo\nID                               : 1\nFormat                           : AVC\nFormat/Info                      : Advanced Video Codec\nFormat profile                   : &lt;a class=&quot;__cf_email__&quot; href=&quot;/cdn-cgi/l/email-protection&quot; data-cfemail=&quot;9ed6f7f9f6ded2aab0af&quot;&gt;[email&amp;#160;protected]&lt;/a&gt;&lt;script cf-hash='f9e31' type=&quot;text/javascript&quot;&gt;\n/* &lt;![CDATA[ */!function(){try{var t=&quot;currentScript&quot;in document?document.currentScript:function(){for(var t=document.getElementsByTagName(&quot;script&quot;),e=t.length;e--;)if(t[e].getAttribute(&quot;cf-hash&quot;))return t[e]}();if(t&amp;&amp;t.previousSibling){var e,r,n,i,c=t.previousSibling,a=c.getAttribute(&quot;data-cfemail&quot;);if(a){for(e=&quot;&quot;,r=parseInt(a.substr(0,2),16),n=2;a.length-n;n+=2)i=parseInt(a.substr(n,2),16)^r,e+=String.fromCharCode(i);e=document.createTextNode(e),c.parentNode.replaceChild(e,c)}}}catch(u){}}();/* ]]&gt; */&lt;/script&gt;\nFormat settings, CABAC           : Yes\nFormat settings, ReFrames        : 4 frames\nCodec ID                         : V_MPEG4/ISO/AVC\nDuration                         : 1h 30mn\nBit rate                         : 12.4 Mbps\nWidth                            : 1 920 pixels\nHeight                           : 1 080 pixels\nDisplay aspect ratio             : 16:9\nFrame rate                       : 23.976 fps\nColor space                      : YUV\nChroma subsampling               : 4:2:0\nBit depth                        : 8 bits\nScan type                        : Progressive\nBits/(Pixel*Frame)               : 0.249\nStream size                      : 7.62 GiB (87%)\nWriting library                  : x264 core 98 r1649 20cbe10\n\nLanguage                         : English\n\nAudio\nID                               : 2\nFormat                           : DTS\nFormat/Info                      : Digital Theater Systems\nCodec ID                         : A_DTS\nDuration                         : 1h 30mn\nBit rate mode                    : Constant\nBit rate                         : 1 510 Kbps\nChannel(s)                       : 6 channels\nChannel positions                : Front: L C R, Side: L R, LFE\nSampling rate                    : 48.0 KHz\nBit depth                        : 24 bits\nCompression mode                 : Lossy\nStream size                      : 972 MiB (11%)\nLanguage                         : English\n","torrent":{"xt":"urn:btih:1cefcb93f7006b70484180bb05c2e1aa77cd0447","amp;dn":"Saw+VII+2010+1080p+Bluray+x264+DTS-HDChina+BOZX","amp;tr":["udp%3A%2F%2Ftracker.openbittorrent.com%3A80","udp%3A%2F%2Fopen.demonii.com%3A1337","udp%3A%2F%2Ftracker.coppersurfer.tk%3A6969","udp%3A%2F%2Fexodus.desync.com%3A6969"],"infoHash":"1cefcb93f7006b70484180bb05c2e1aa77cd0447","infoHashBuffer":{"type":"Buffer","data":[28,239,203,147,247,0,107,112,72,65,128,187,5,194,225,170,119,205,4,71]},"announce":[],"urlList":[]}}